HIERARCHY
ROOT Hips
{
    OFFSET   0.000000   0.000000   0.000000
    CHANNELS 6 Xposition Yposition Zposition Zrotation Xrotation Yrotation
    JOINT Chest
    {
        OFFSET   0.000000   8.007240   0.000000
        CHANNELS 3 Zrotation Xrotation Yrotation
        JOINT Chest2
        {
            OFFSET   0.000000  22.077100   0.000000
            CHANNELS 3 Zrotation Xrotation Yrotation
            JOINT Neck
            {
                OFFSET   0.000000  23.254800   0.000000
                CHANNELS 3 Zrotation Xrotation Yrotation
                JOINT Head
                {
                    OFFSET   0.000000  14.370000   1.956600
                    CHANNELS 3 Zrotation Xrotation Yrotation
                    End Site
                    {
                        OFFSET   0.000000  19.566000   0.000000
                    }
                }
            }
            JOINT LeftCollar
            {
                OFFSET   3.911900  19.017000  -0.467064
                CHANNELS 3 Zrotation Xrotation Yrotation
                JOINT LeftShoulder
                {
                    OFFSET  10.383700   0.000000   0.000000
                    CHANNELS 3 Zrotation Xrotation Yrotation
                    JOINT LeftElbow
                    {
                        OFFSET  26.662100   0.001476   0.000517
                        CHANNELS 3 Zrotation Xrotation Yrotation
                        JOINT LeftWrist
                        {
                            OFFSET  28.869000  -0.000025  -0.000106
                            CHANNELS 3 Zrotation Xrotation Yrotation
                            JOINT LeftFinger0
                            {
                                OFFSET   2.044660  -2.323460   3.252850
                                CHANNELS 3 Zrotation Xrotation Yrotation
                                JOINT LeftFinger01
                                {
                                    OFFSET   3.088130   0.000000   0.000000
                                    CHANNELS 3 Zrotation Xrotation Yrotation
                                    JOINT LeftFinger02
                                    {
                                        OFFSET   2.639460   0.000000   0.000000
                                        CHANNELS 3 Zrotation Xrotation Yrotation
                                        End Site
                                        {
                                            OFFSET   2.582190   0.000000   0.000000
                                        }
                                    }
                                }
                            }
                            JOINT LeftFinger1
                            {
                                OFFSET   8.364480   0.000000   3.252850
                                CHANNELS 3 Zrotation Xrotation Yrotation
                                JOINT LeftFinger11
                                {
                                    OFFSET   4.646930   0.000000   0.000000
                                    CHANNELS 3 Zrotation Xrotation Yrotation
                                    JOINT LeftFinger12
                                    {
                                        OFFSET   2.323460   0.000000   0.000000
                                        CHANNELS 3 Zrotation Xrotation Yrotation
                                        End Site
                                        {
                                            OFFSET   2.273050   0.000000   0.000000
                                        }
                                    }
                                }
                            }
                            JOINT LeftFinger2
                            {
                                OFFSET   8.364490   0.000015   1.078090
                                CHANNELS 3 Zrotation Xrotation Yrotation
                                JOINT LeftFinger21
                                {
                                    OFFSET   5.111620   0.000000   0.000000
                                    CHANNELS 3 Zrotation Xrotation Yrotation
                                    JOINT LeftFinger22
                                    {
                                        OFFSET   2.788160   0.000016   0.000000
                                        CHANNELS 3 Zrotation Xrotation Yrotation
                                        End Site
                                        {
                                            OFFSET   2.727660   0.000000   0.000000
                                        }
                                    }
                                }
                            }
                            JOINT LeftFinger3
                            {
                                OFFSET   7.899780   0.000017  -1.078090
                                CHANNELS 3 Zrotation Xrotation Yrotation
                                JOINT LeftFinger31
                                {
                                    OFFSET   4.646930   0.000000   0.000000
                                    CHANNELS 3 Zrotation Xrotation Yrotation
                                    JOINT LeftFinger32
                                    {
                                        OFFSET   2.323470   0.000000   0.000000
                                        CHANNELS 3 Zrotation Xrotation Yrotation
                                        End Site
                                        {
                                            OFFSET   2.273050   0.000000   0.000000
                                        }
                                    }
                                }
                            }
                            JOINT LeftFinger4
                            {
                                OFFSET   7.435090   0.000000  -3.252850
                                CHANNELS 3 Zrotation Xrotation Yrotation
                                JOINT LeftFinger41
                                {
                                    OFFSET   3.717550   0.000000   0.000000
                                    CHANNELS 3 Zrotation Xrotation Yrotation
                                    JOINT LeftFinger42
                                    {
                                        OFFSET   1.858770   0.000000   0.000000
                                        CHANNELS 3 Zrotation Xrotation Yrotation
                                        End Site
                                        {
                                            OFFSET   1.818440   0.000000   0.000000
                                        }
                                    }
                                }
                            }
                        }
                    }
                }
            }
            JOINT RightCollar
            {
                OFFSET  -3.911900  19.017000  -0.467063
                CHANNELS 3 Zrotation Xrotation Yrotation
                JOINT RightShoulder
                {
                    OFFSET -10.383700   0.000019   0.000000
                    CHANNELS 3 Zrotation Xrotation Yrotation
                    JOINT RightElbow
                    {
                        OFFSET -26.662100   0.001175   0.000102
                        CHANNELS 3 Zrotation Xrotation Yrotation
                        JOINT RightWrist
                        {
                            OFFSET -28.869000   0.000016  -0.000079
                            CHANNELS 3 Zrotation Xrotation Yrotation
                            JOINT RightFinger0
                            {
                                OFFSET  -2.044660  -2.323490   3.252850
                                CHANNELS 3 Zrotation Xrotation Yrotation
                                JOINT RightFinger01
                                {
                                    OFFSET  -3.088140   0.000000   0.000000
                                    CHANNELS 3 Zrotation Xrotation Yrotation
                                    JOINT RightFinger02
                                    {
                                        OFFSET  -2.639460   0.000000   0.000000
                                        CHANNELS 3 Zrotation Xrotation Yrotation
                                        End Site
                                        {
                                            OFFSET  -2.582190   0.000000   0.000000
                                        }
                                    }
                                }
                            }
                            JOINT RightFinger1
                            {
                                OFFSET  -8.364480   0.000000   3.252850
                                CHANNELS 3 Zrotation Xrotation Yrotation
                                JOINT RightFinger11
                                {
                                    OFFSET  -4.646930   0.000000   0.000000
                                    CHANNELS 3 Zrotation Xrotation Yrotation
                                    JOINT RightFinger12
                                    {
                                        OFFSET  -2.323470   0.000000   0.000000
                                        CHANNELS 3 Zrotation Xrotation Yrotation
                                        End Site
                                        {
                                            OFFSET  -2.273050   0.000000   0.000000
                                        }
                                    }
                                }
                            }
                            JOINT RightFinger2
                            {
                                OFFSET  -8.364480   0.000000   1.078090
                                CHANNELS 3 Zrotation Xrotation Yrotation
                                JOINT RightFinger21
                                {
                                    OFFSET  -5.111620   0.000000   0.000000
                                    CHANNELS 3 Zrotation Xrotation Yrotation
                                    JOINT RightFinger22
                                    {
                                        OFFSET  -2.788160   0.000000   0.000000
                                        CHANNELS 3 Zrotation Xrotation Yrotation
                                        End Site
                                        {
                                            OFFSET  -2.727660   0.000000   0.000000
                                        }
                                    }
                                }
                            }
                            JOINT RightFinger3
                            {
                                OFFSET  -7.899780   0.000000  -1.078090
                                CHANNELS 3 Zrotation Xrotation Yrotation
                                JOINT RightFinger31
                                {
                                    OFFSET  -4.646930   0.000000   0.000000
                                    CHANNELS 3 Zrotation Xrotation Yrotation
                                    JOINT RightFinger32
                                    {
                                        OFFSET  -2.323470   0.000000   0.000000
                                        CHANNELS 3 Zrotation Xrotation Yrotation
                                        End Site
                                        {
                                            OFFSET  -2.273050   0.000000   0.000000
                                        }
                                    }
                                }
                            }
                            JOINT RightFinger4
                            {
                                OFFSET  -7.435090   0.000000  -3.252850
                                CHANNELS 3 Zrotation Xrotation Yrotation
                                JOINT RightFinger41
                                {
                                    OFFSET  -3.717550   0.000000   0.000000
                                    CHANNELS 3 Zrotation Xrotation Yrotation
                                    JOINT RightFinger42
                                    {
                                        OFFSET  -1.858770   0.000000   0.000000
                                        CHANNELS 3 Zrotation Xrotation Yrotation
                                        End Site
                                        {
                                            OFFSET  -1.818440   0.000000   0.000000
                                        }
                                    }
                                }
                            }
                        }
                    }
                }
            }
        }
    }
    JOINT LeftHip
    {
        OFFSET   9.783040   0.000000   0.000000
        CHANNELS 3 Zrotation Xrotation Yrotation
        JOINT LeftKnee
        {
            OFFSET   0.000032 -41.789100  -0.002222
            CHANNELS 3 Zrotation Xrotation Yrotation
            JOINT LeftAnkle
            {
                OFFSET   0.000087 -41.133200  -0.000135
                CHANNELS 3 Zrotation Xrotation Yrotation
                JOINT LeftToe
                {
                    OFFSET   0.000000  -6.358960  14.674500
                    CHANNELS 3 Zrotation Xrotation Yrotation
                    End Site
                    {
                        OFFSET   0.000000   0.000000   3.913200
                    }
                }
            }
        }
    }
    JOINT RightHip
    {
        OFFSET  -9.783040   0.000000   0.000000
        CHANNELS 3 Zrotation Xrotation Yrotation
        JOINT RightKnee
        {
            OFFSET   0.000047 -41.789100  -0.000896
            CHANNELS 3 Zrotation Xrotation Yrotation
            JOINT RightAnkle
            {
                OFFSET  -0.000117 -41.133300  -0.000248
                CHANNELS 3 Zrotation Xrotation Yrotation
                JOINT RightToe
                {
                    OFFSET   0.000000  -6.358970  14.674500
                    CHANNELS 3 Zrotation Xrotation Yrotation
                    End Site
                    {
                        OFFSET   0.000000   0.000000   3.913200
                    }
                }
            }
        }
    }
}
MOTION
Frames: 5
Frame Time:   0.016667
 -0.128255  89.918800   0.564955  -0.264804  -7.666550   0.769877   0.650448   4.360460   0.232203   1.288750   8.723310   0.416397   3.176130   0.207237  -0.007985   5.218550   0.406504  -0.350554  -2.985960   1.608320   2.393180 -58.053100 -11.512100 -45.645000  15.311900 -21.644600 -101.158000  31.512400  44.160700  -5.705730  61.722100  58.538300 -110.529000 -41.171000   0.000000   0.000310 -15.761800   0.002077  -0.008162 -29.370600   5.795190 -10.068700 -24.548900   0.037762   0.321371 -18.050200  -0.081335   0.207445 -26.004300  -4.141900   8.215710 -36.045800  -0.092200  -0.028530 -23.250100  -0.045598  -0.067003 -70.376400  -8.045610   2.886440 -70.549400  -0.000588  -0.006761 -52.912000  -0.003209  -0.000648 -79.173100  -9.892650   1.884890 -110.000000  -0.004733   0.001779 -79.267100   0.000613   0.006004   6.694190   1.993310   6.790210  51.738600 -14.713900  41.248900 -15.713700 -24.602200  96.525000 -63.813500  71.672800  44.048200 -24.499200  31.264900  62.435900  59.401600   0.006259  -0.010623  32.901400   0.006549   0.001030  14.566800   2.554820   8.080550  12.077100   0.071560  -0.115435   8.451770   0.023381  -0.090166  15.222300  -3.069690 -11.976000  10.224600  -0.098725   0.032896   6.809550  -0.056927   0.038702  66.214300 -11.507500  -5.017740  66.710600  -0.002579   0.002080  50.033000  -0.002469   0.001240  81.454300 -11.925900  -1.781120 110.000000   0.002118   0.000425  80.000000  -0.000504   0.003269  -0.389611   9.194200   2.385610   0.178296   0.824937  13.813100  -4.848600  -4.134870   4.617930  -0.000000   0.000000  -0.000000   2.862500   9.429170 -11.054800   0.193946   1.389070  -8.793440 -10.404300  -0.524465  -0.705893  -0.000000   0.000000   0.000000
 -0.124373  89.919100   0.574270  -0.266197  -7.664810   0.778378   0.650012   4.351780   0.233911   1.287710   8.705910   0.419934   3.174720   0.207134  -0.008225   5.215980   0.405072  -0.344378  -2.989960   1.608930   2.387360 -58.030700 -11.397700 -45.612000  15.225400 -21.824700 -101.090000  32.177800  43.169300  -6.058540  61.881400  58.760400 -110.665000 -41.436100   0.000000   0.000258 -16.044000   0.002061  -0.008220 -42.317400   4.788370  -5.927100 -34.823300  -0.007995   0.294535 -25.969700  -0.109215   0.181760 -34.757200  -3.821050   5.942230 -49.570200  -0.040394  -0.009518 -32.562100  -0.016797  -0.048829 -71.566200  -6.116020   2.097970 -71.650500  -0.000545  -0.006837 -53.737800  -0.003224  -0.000677 -80.396800  -9.899160   1.700920 -110.000000  -0.004736   0.001663 -79.778800   0.000562   0.006036   6.696430   1.999380   6.789470  51.691100 -14.605100  41.274800 -15.736200 -24.740400  96.507600 -63.584600  71.591800  43.430900 -24.464300  31.307700  62.394100  59.501200   0.006425  -0.010923  32.967800   0.006553   0.001051  23.424200   3.281290   7.375640  19.359300   0.071085  -0.148595  13.454300   0.015380  -0.119320  21.998900  -3.976130 -10.093800  19.598000  -0.091099   0.032068  13.052300  -0.050678   0.038135  66.646000 -10.054000  -4.312200  67.010900  -0.002589   0.001981  50.258300  -0.002484   0.001229  81.823500 -10.556400  -1.527980 110.000000   0.002135   0.000384  80.000000  -0.000525   0.003238  -0.389964   9.275370   2.385060   0.173020   0.738990  13.820500  -4.846630  -4.134520   4.603690  -0.000000   0.000000   0.000000   2.865730   9.429620 -11.045500   0.192515   1.390500  -8.806830 -10.400000  -0.527200  -0.708054  -0.000000   0.000000   0.000000
 -0.120998  89.919400   0.583335  -0.268405  -7.662960   0.782353   0.648774   4.345140   0.236666   1.285050   8.692650   0.425655   3.174510   0.206414  -0.008456   5.215400   0.402879  -0.343360  -2.994220   1.609530   2.381450 -57.985500 -11.260300 -45.566400  15.059800 -22.059200 -101.061000  32.572100  42.344300  -6.285350  62.043600  58.983900 -110.803000 -41.799900   0.000000   0.000168 -16.409900   0.002035  -0.008284 -53.850200   2.988700  -2.147150 -44.071900  -0.038729   0.224023 -33.095900  -0.116228   0.128167 -44.130300  -3.319040   3.464550 -57.783700   0.011413   0.009493 -40.363900   0.012004  -0.021872 -72.865400  -4.715830   1.438470 -72.931100  -0.000506  -0.006906 -54.698300  -0.003243  -0.000717 -81.852200  -9.905310   1.414780 -110.000000  -0.004741   0.001547 -80.091100   0.000510   0.006067   6.702830   2.002720   6.788730  51.628100 -14.494800  41.275000 -15.756000 -24.890300  96.493300 -63.063800  71.359800  42.434700 -24.329900  31.427700  62.313700  59.548100   0.006596  -0.011218  32.999000   0.006555   0.001074  32.539400   3.621370   5.786490  26.784600   0.067756  -0.160372  18.667300   0.002577  -0.131120  27.522400  -4.410100  -8.170050  30.158900  -0.070954   0.027480  20.085800  -0.037008   0.034169  67.185700  -8.494130  -3.558510  67.444600  -0.002595   0.001882  50.583500  -0.002495   0.001214  82.398800  -9.669960  -1.284570 110.000000   0.002157   0.000346  80.000000  -0.000547   0.003207  -0.390467   9.356530   2.385460   0.167796   0.653057  13.825500  -4.845260  -4.134490   4.591900   0.000000   0.000000   0.000000   2.869010   9.430070 -11.036000   0.191776   1.391490  -8.822980 -10.395800  -0.531329  -0.708363   0.000000   0.000000   0.000000
 -0.118772  89.919700   0.590593  -0.271088  -7.661390   0.780324   0.644383   4.343810   0.241305   1.275910   8.690050   0.435346   3.179200   0.204969  -0.008674   5.223150   0.399849  -0.344277  -3.003230   1.594360   2.372080 -57.894200 -11.088800 -45.509600  14.852200 -22.388400 -101.078000  32.440600  42.128200  -6.195630  62.211200  59.210300 -110.947000 -42.414700   0.000000   0.000065 -16.983000   0.002014  -0.008356 -61.128500   1.054110  -0.309246 -50.005500  -0.017118   0.076153 -37.547700  -0.051065   0.042220 -53.434300  -3.017830   2.167140 -58.318600   0.006111   0.005175 -43.297200   0.006666  -0.004910 -74.243100  -4.769420   1.309110 -74.309600  -0.000452  -0.006973 -55.732200  -0.003277  -0.000756 -83.470900  -9.932980   1.133230 -110.000000  -0.004748   0.001437 -80.046300   0.000462   0.006095   6.719650   1.987500   6.797280  51.540000 -14.381000  41.240500 -15.798200 -25.050900  96.467000 -62.402100  71.027700  41.233800 -24.411600  32.006500  62.572700  59.536800   0.006762  -0.011558  32.991500   0.006559   0.001090  39.590500   2.665410   3.384570  32.444800   0.032165  -0.106587  22.987700  -0.008627  -0.089594  29.641700  -4.043780  -6.981400  39.846100  -0.028509   0.014442  26.537500  -0.013576   0.016299  67.894800  -7.437210  -3.016000  68.089300  -0.002595   0.001797  51.067000  -0.002501   0.001209  83.141400  -9.803760  -1.152000 110.000000   0.002172   0.000319  80.000000  -0.000568   0.003176  -0.390478   9.353920   2.385520   0.167594   0.655356  13.829600  -4.843620  -4.135180   4.584070   0.000000   0.000000  -0.000000   2.870860   9.433190 -11.026400   0.191401   1.391240  -8.840170 -10.391500  -0.538672  -0.701036   0.000000   0.000000   0.000000
 -0.116491  89.920000   0.596069  -0.273917  -7.659830   0.775916   0.637767   4.343440   0.246777   1.262180   8.689340   0.446827   3.189400   0.201789  -0.008885   5.239970   0.394973  -0.348250  -3.014800   1.572090   2.361110 -57.825500 -10.952100 -45.445600  14.700000 -22.686100 -101.149000  32.145600  42.088300  -5.842060  62.307200  59.338100 -111.030000 -42.823000   0.000000  -0.000000 -17.356700   0.001992  -0.008429 -64.093600  -0.130572   0.243338 -52.451100   0.004494  -0.028042 -39.338300   0.014098  -0.015820 -59.744800  -2.795990   1.561440 -58.506100   0.000683  -0.001051 -44.179900  -0.000148   0.003269 -75.062400  -4.844910   1.290760 -75.117100  -0.000420  -0.007032 -56.337900  -0.003315  -0.000859 -84.432400  -9.953180   0.966452 -110.000000  -0.004752   0.001327 -80.000000   0.000409   0.006121   6.739710   1.968920   6.807810  51.455600 -14.273800  41.189300 -15.856400 -25.206500  96.451100 -61.711500  70.742800  40.064400 -24.751500  32.633000  63.040500  59.468300   0.006931  -0.011857  32.945900   0.006564   0.001106  44.909600   1.123420   1.035880  36.748100  -0.000573  -0.032693  26.523400  -0.015029  -0.031678  30.606800  -3.650930  -6.168560  47.510900   0.001418   0.002808  31.642300   0.002437   0.001830  68.558800  -6.677280  -2.614500  68.711900  -0.002593   0.001732  51.533900  -0.002507   0.001203  83.848100  -9.943790  -1.067100 110.000000   0.002182   0.000296  80.000000  -0.000589   0.003140  -0.390493   9.339980   2.385690   0.167554   0.666978  13.835500  -4.841830  -4.135860   4.578780  -0.000000   0.000000  -0.000000   2.871550   9.438260 -11.016800   0.191367   1.389830  -8.856840 -10.387700  -0.545744  -0.688928   0.000000   0.000000  -0.000000
